<svg xmlns="http://www.w3.org/2000/svg" version="1.1" xmlns:xlink="http://www.w3.org/1999/xlink" xmlns:svgjs="http://svgjs.dev/svgjs" viewBox="0 0 3.5982 4.2010649618288465"><g transform="matrix(0.8571428571428572,0,0,0.8571428571428572,0.5140285714285713,1.7524317502696427)"><g transform="matrix(1,0,0,1,0,0)" clip-path="url(#SvgjsClipPath171046)"><g clip-path="url(#SvgjsClipPath171044d0727c72-b76c-47e9-805d-59aa1604851e)"><path d=" M 0.8328680250108004 -1.3945649618288463 L 1.6324123226083544 -1.3945649618288463 L 0.799544297597554 -0.6252672005996217 L 0 -0.6252672005996217 Z" fill="#404040" transform="matrix(1,0,0,1,0,0)" fill-rule="nonzero"></path></g><g clip-path="url(#SvgjsClipPath171044d0727c72-b76c-47e9-805d-59aa1604851e)"><path d=" M 1.3207153857903087 -1.0192977612292244 L 2.1202596833878626 -1.0192977612292244 L 1.287391658377062 -0.25 L 0.4878473607795082 -0.25 Z" fill="#bab9b4" transform="matrix(1,0,0,1,0,0)" fill-rule="nonzero"></path></g></g><g><path d=" M 0.2745 0.7799999999999998 C 0.23550000000000001 0.8594999999999998 0.1695 0.9359999999999998 0.096 0.9779999999999998 L 0.18 1.0364999999999998 C 0.261 0.9824999999999998 0.3285 0.8924999999999998 0.369 0.8054999999999999 M 0.504 0.8159999999999998 C 0.528 0.8699999999999999 0.5505 0.9434999999999998 0.558 0.9914999999999998 L 0.6585 0.9659999999999999 C 0.6495 0.9194999999999998 0.6255000000000001 0.8489999999999998 0.5985 0.7964999999999998 M 0.8085 0.8189999999999998 C 0.852 0.8699999999999999 0.9 0.9404999999999999 0.9195 0.9884999999999998 L 1.0110000000000001 0.9494999999999998 C 0.987 0.9044999999999999 0.9405 0.8354999999999999 0.8955000000000001 0.7859999999999998 M 0.6900000000000001 0.9434999999999998 L 0.6900000000000001 1.0454999999999999 L 0.228 1.0454999999999999 L 0.228 1.1369999999999998 L 0.6900000000000001 1.1369999999999998 L 0.6900000000000001 1.2494999999999998 L 0.069 1.2494999999999998 L 0.069 1.3395 L 1.4325 1.3395 L 1.4325 1.2494999999999998 L 0.801 1.2494999999999998 L 0.801 1.1369999999999998 L 1.272 1.1369999999999998 L 1.272 1.0454999999999999 L 0.801 1.0454999999999999 L 0.801 0.9434999999999998 M 0.2325 0.05249999999999977 L 0.2325 0.44999999999999984 L 0.6915 0.44999999999999984 L 0.6915 0.5234999999999999 L 0.2085 0.5234999999999999 L 0.2085 0.6044999999999998 L 0.6915 0.6044999999999998 L 0.6915 0.6884999999999998 L 0.096 0.6884999999999998 L 0.096 0.7724999999999999 L 1.4040000000000001 0.7724999999999999 L 1.4040000000000001 0.6884999999999998 L 0.801 0.6884999999999998 L 0.801 0.6044999999999998 L 1.3035 0.6044999999999998 L 1.3035 0.5234999999999999 L 0.801 0.5234999999999999 L 0.801 0.44999999999999984 L 1.2690000000000001 0.44999999999999984 L 1.2690000000000001 0.05249999999999977 M 1.107 0.8189999999999998 C 1.185 0.8789999999999998 1.2795 0.9674999999999998 1.3245 1.0244999999999997 L 1.413 0.9734999999999998 C 1.365 0.9149999999999998 1.2690000000000001 0.8309999999999998 1.191 0.7724999999999999 M 0.339 0.2849999999999998 L 0.6915 0.2849999999999998 L 0.6915 0.37649999999999983 L 0.339 0.37649999999999983 M 0.801 0.2849999999999998 L 1.158 0.2849999999999998 L 1.158 0.37649999999999983 L 0.801 0.37649999999999983 M 0.339 0.12449999999999983 L 0.6915 0.12449999999999983 L 0.6915 0.21599999999999975 L 0.339 0.21599999999999975 M 0.801 0.12449999999999983 L 1.158 0.12449999999999983 L 1.158 0.21599999999999975 L 0.801 0.21599999999999975 M 1.5645 0.3029999999999998 C 1.6515 0.3314999999999998 1.7625 0.3779999999999998 1.821 0.41249999999999987 L 1.8704999999999998 0.32699999999999985 C 1.8105 0.2939999999999998 1.6995 0.2504999999999997 1.6139999999999999 0.22649999999999992 M 1.668 0.08699999999999974 C 1.755 0.11699999999999977 1.8675 0.1649999999999998 1.9244999999999999 0.20099999999999985 L 1.9725 0.11699999999999977 C 1.914 0.0824999999999998 1.7999999999999998 0.03749999999999987 1.7129999999999999 0.013499999999999845 M 1.6035 0.6869999999999998 L 1.6844999999999999 0.7634999999999998 C 1.7685 0.6794999999999999 1.8615 0.5774999999999998 1.9425 0.4859999999999999 L 1.875 0.41549999999999987 C 1.7835 0.5159999999999998 1.6784999999999999 0.6224999999999998 1.6035 0.6869999999999998 M 2.1915 0.6659999999999998 L 2.1915 0.8264999999999998 L 1.5839999999999999 0.8264999999999998 L 1.5839999999999999 0.9269999999999998 L 2.091 0.9269999999999998 C 1.959 1.0724999999999998 1.7475 1.2014999999999998 1.5525 1.2644999999999997 C 1.5779999999999998 1.287 1.611 1.3289999999999997 1.6275 1.3575 C 1.8315 1.2794999999999999 2.052 1.1294999999999997 2.1915 0.9584999999999999 L 2.1915 1.38 L 2.3055 1.38 L 2.3055 0.9659999999999999 C 2.445 1.134 2.6595 1.275 2.8695 1.3484999999999998 C 2.886 1.3184999999999998 2.919 1.275 2.9444999999999997 1.2525 C 2.7405 1.1925 2.5305 1.0709999999999997 2.4015 0.9269999999999998 L 2.916 0.9269999999999998 L 2.916 0.8264999999999998 L 2.3055 0.8264999999999998 L 2.3055 0.6659999999999998 M 2.271 0.0014999999999998348 C 2.2695 0.06149999999999989 2.2664999999999997 0.11699999999999977 2.2605 0.16799999999999993 L 2.0145 0.16799999999999993 L 2.0145 0.2699999999999998 L 2.2439999999999998 0.2699999999999998 C 2.199 0.46499999999999986 2.0985 0.5849999999999999 1.902 0.6584999999999999 C 1.926 0.6764999999999999 1.9665 0.7229999999999999 1.98 0.7439999999999999 C 2.1945 0.6479999999999998 2.307 0.5054999999999998 2.3565 0.2699999999999998 L 2.5605 0.2699999999999998 L 2.5605 0.5384999999999999 C 2.5605 0.6269999999999998 2.5694999999999997 0.6539999999999998 2.5934999999999997 0.6734999999999999 C 2.6189999999999998 0.6929999999999998 2.6565 0.7004999999999998 2.6895 0.7004999999999998 C 2.7075 0.7004999999999998 2.7569999999999997 0.7004999999999998 2.7794999999999996 0.7004999999999998 C 2.8064999999999998 0.7004999999999998 2.8425000000000002 0.6959999999999998 2.8635 0.6869999999999998 C 2.886 0.6764999999999999 2.904 0.6599999999999998 2.9145 0.6299999999999998 C 2.9234999999999998 0.6029999999999999 2.928 0.5279999999999998 2.931 0.46199999999999986 C 2.8994999999999997 0.4514999999999998 2.856 0.43049999999999977 2.835 0.40949999999999986 C 2.8335 0.4814999999999998 2.832 0.5354999999999999 2.8274999999999997 0.5594999999999998 C 2.8245 0.5834999999999998 2.8155 0.5939999999999999 2.808 0.5984999999999998 C 2.799 0.6044999999999998 2.7824999999999998 0.6059999999999999 2.7675 0.6059999999999999 C 2.751 0.6059999999999999 2.7255000000000003 0.6059999999999999 2.7119999999999997 0.6059999999999999 C 2.6985 0.6059999999999999 2.6879999999999997 0.6044999999999998 2.6805 0.5999999999999999 C 2.673 0.5939999999999999 2.67 0.5759999999999998 2.67 0.5444999999999999 L 2.67 0.16799999999999993 L 2.373 0.16799999999999993 C 2.379 0.11549999999999971 2.3834999999999997 0.05999999999999983 2.385 -2.220446049250313e-16" fill="#404040" fill-rule="nonzero"></path></g><g><path d=" M 0.5202272727272726 1.73089090909091 L 0.5202272727272726 2.2013454545454554 L 0.4725 2.2013454545454554 L 0.4725 1.8256636363636372 L 0.30477272727272725 2.2013454545454554 L 0.26999999999999996 2.2013454545454554 L 0.10227272727272727 1.8270272727272736 L 0.10227272727272727 2.2013454545454554 L 0.05454545454545454 2.2013454545454554 L 0.05454545454545454 1.73089090909091 L 0.105 1.73089090909091 L 0.28704545454545455 2.138618181818183 L 0.46909090909090906 1.73089090909091 L 0.5202272727272726 1.73089090909091 M 0.6971454412286932 2.1832772727272736 Q 0.655213623046875 2.1597545454545464 0.6310090775923295 2.1164590909090917 Q 0.6068045321377841 2.0731636363636374 0.6068045321377841 2.015209090909092 Q 0.6068045321377841 1.9572545454545462 0.6313499866832386 1.9139590909090918 Q 0.6558954412286931 1.8706636363636373 0.6981681685014205 1.8471409090909099 Q 0.7404408957741477 1.8236181818181827 0.7929408957741477 1.8236181818181827 Q 0.8454408957741477 1.8236181818181827 0.8880545321377841 1.8471409090909099 Q 0.9306681685014204 1.8706636363636373 0.9548727139559658 1.9139590909090918 Q 0.9790772594105113 1.9572545454545462 0.9790772594105113 2.015209090909092 Q 0.9790772594105113 2.072481818181819 0.9545318048650568 2.1161181818181825 Q 0.9299863503196022 2.1597545454545464 0.8870318048650567 2.1832772727272736 Q 0.8440772594105113 2.2068000000000008 0.7915772594105113 2.2068000000000008 Q 0.7390772594105113 2.2068000000000008 0.6971454412286932 2.1832772727272736 M 0.8597590775923295 2.1485045454545464 Q 0.8911227139559659 2.131800000000001 0.910554532137784 2.0980500000000006 Q 0.9299863503196022 2.0643000000000007 0.9299863503196022 2.015209090909092 Q 0.9299863503196022 1.9661181818181828 0.9108954412286931 1.9323681818181826 Q 0.8918045321377841 1.8986181818181826 0.8604408957741476 1.8819136363636373 Q 0.8290772594105114 1.8652090909090917 0.7922590775923295 1.8652090909090917 Q 0.7554408957741476 1.8652090909090917 0.7240772594105114 1.8819136363636373 Q 0.692713623046875 1.8986181818181826 0.673963623046875 1.9323681818181826 Q 0.655213623046875 1.9661181818181828 0.655213623046875 2.015209090909092 Q 0.655213623046875 2.0643000000000007 0.673963623046875 2.0980500000000006 Q 0.692713623046875 2.131800000000001 0.7237363503196023 2.1485045454545464 Q 0.7547590775923295 2.1652090909090917 0.7915772594105113 2.1652090909090917 Q 0.8283954412286931 2.1652090909090917 0.8597590775923295 2.1485045454545464 M 1.3200059925426135 2.2013454545454554 L 1.202051447088068 2.002254545454546 L 1.1140969016335227 2.002254545454546 L 1.1140969016335227 2.2013454545454554 L 1.0663696289062499 2.2013454545454554 L 1.0663696289062499 1.7247545454545463 L 1.2095514470880682 1.7247545454545463 Q 1.2893241743607953 1.7247545454545463 1.3305741743607955 1.7629363636363644 Q 1.3718241743607953 1.8011181818181827 1.3718241743607953 1.8631636363636372 Q 1.3718241743607953 1.914981818181819 1.3421650834517045 1.9514590909090916 Q 1.3125059925426137 1.9879363636363645 1.254551447088068 1.9988454545454555 L 1.377278719815341 2.2013454545454554 L 1.3200059925426135 2.2013454545454554 M 1.1140969016335227 1.9633909090909099 L 1.2102332652698864 1.9633909090909099 Q 1.2661423561789773 1.9633909090909099 1.2944378107244319 1.9361181818181827 Q 1.3227332652698862 1.9088454545454554 1.3227332652698862 1.8631636363636372 Q 1.3227332652698862 1.8161181818181826 1.295460537997159 1.790550000000001 Q 1.2681878107244318 1.764981818181819 1.2095514470880682 1.764981818181819 L 1.1140969016335227 1.764981818181819 L 1.1140969016335227 1.9633909090909099 M 1.4676026500355115 1.9139590909090918 Q 1.4904435591264205 1.8706636363636373 1.5310117409446022 1.8471409090909099 Q 1.5715799227627842 1.8236181818181827 1.6227162863991478 1.8236181818181827 Q 1.675898104580966 1.8236181818181827 1.714420831853693 1.8481636363636373 Q 1.7529435591264204 1.8727090909090918 1.769989013671875 1.9108909090909099 L 1.769989013671875 1.829072727272728 L 1.8177162863991478 1.829072727272728 L 1.8177162863991478 2.2013454545454554 L 1.769989013671875 2.2013454545454554 L 1.769989013671875 2.1188454545454554 Q 1.7522617409446024 2.1570272727272735 1.713739013671875 2.181913636363637 Q 1.6752162863991478 2.2068000000000008 1.6220344682173296 2.2068000000000008 Q 1.5715799227627842 2.2068000000000008 1.5310117409446022 2.1829363636363643 Q 1.4904435591264205 2.159072727272728 1.4676026500355115 2.1154363636363644 Q 1.4447617409446023 2.071800000000001 1.4447617409446023 2.0145272727272734 Q 1.4447617409446023 1.9572545454545462 1.4676026500355115 1.9139590909090918 M 1.7515799227627842 1.9361181818181827 Q 1.7331708318536931 1.9020272727272736 1.7014662863991479 1.8836181818181827 Q 1.6697617409446024 1.8652090909090917 1.631579922762784 1.8652090909090917 Q 1.5920344682173295 1.8652090909090917 1.5606708318536933 1.8829363636363645 Q 1.5293071954900568 1.900663636363637 1.511239013671875 1.9344136363636373 Q 1.4931708318536931 1.9681636363636372 1.4931708318536931 2.0145272727272734 Q 1.4931708318536931 2.0602090909090918 1.511239013671875 2.09464090909091 Q 1.5293071954900568 2.129072727272728 1.5606708318536933 2.14714090909091 Q 1.5920344682173295 2.1652090909090917 1.631579922762784 2.1652090909090917 Q 1.6697617409446024 2.1652090909090917 1.7014662863991479 2.1468000000000007 Q 1.7331708318536931 2.12839090909091 1.7515799227627842 2.094300000000001 Q 1.769989013671875 2.0602090909090918 1.769989013671875 2.015209090909092 Q 1.769989013671875 1.9702090909090917 1.7515799227627842 1.9361181818181827 M 2.210435236150568 1.8635045454545462 Q 2.2527079634232954 1.9047545454545463 2.2527079634232954 1.9831636363636371 L 2.2527079634232954 2.2013454545454554 L 2.205662508877841 2.2013454545454554 L 2.205662508877841 1.9886181818181827 Q 2.205662508877841 1.9279363636363644 2.175321599786932 1.89589090909091 Q 2.1449806906960225 1.8638454545454555 2.0924806906960227 1.8638454545454555 Q 2.0386170543323865 1.8638454545454555 2.006571599786932 1.8979363636363644 Q 1.9745261452414773 1.9320272727272736 1.9745261452414773 1.9981636363636373 L 1.9745261452414773 2.2013454545454554 L 1.9267988725142045 2.2013454545454554 L 1.9267988725142045 1.829072727272728 L 1.9745261452414773 1.829072727272728 L 1.9745261452414773 1.892481818181819 Q 1.99225341796875 1.85839090909091 2.025662508877841 1.8403227272727283 Q 2.059071599786932 1.8222545454545465 2.101344327059659 1.8222545454545465 Q 2.168162508877841 1.8222545454545465 2.210435236150568 1.8635045454545462" fill="#404040" fill-rule="nonzero"></path></g></g><defs><clipPath id="SvgjsClipPath171046"><path d=" M 0 -1.3945649618288463 h 2.1202596833878626 v 1.1445649618288463 h -2.1202596833878626 Z"></path></clipPath><clipPath id="SvgjsClipPath171044d0727c72-b76c-47e9-805d-59aa1604851e"><path d=" M 0 -1.3945649618288463 L 2.1202596833878626 -1.3945649618288463 L 2.1202596833878626 -0.25 L 0 -0.25 Z"></path></clipPath></defs></svg>